<?xml version="1.0" encoding="UTF-8"?>
<!-- Generator: visioncortex VTracer 0.6.4 -->
<svg xmlns="http://www.w3.org/2000/svg" viewBox="0 0 1080 230" width="1080" height="230">
<path d="M0 0 C0.87 0 1.74 0 2.64 0 C47.24 0.06 95.62 2.52 136.12 23.06 C144.95 27.43 153.14 28.16 162.89 28.59 C182.43 29.47 204.44 33.52 221.19 44.19 C221.03 44.9 220.87 45.6 220.7 46.33 C219.31 54.07 219.99 61.73 221.85 69.32 C221.96 69.94 222.07 70.55 222.19 71.19 C221.19 72.19 221.19 72.19 217.62 72.69 C212.76 72.65 210.36 70.35 206.95 67.11 C205.19 65.19 205.19 65.19 203.86 63.11 C202.36 61.03 202.36 61.03 200.11 60.59 C199.31 60.55 198.52 60.5 197.71 60.46 C196.82 60.4 195.93 60.35 195.01 60.29 C194.08 60.26 193.15 60.22 192.19 60.19 C191.29 60.15 190.39 60.11 189.47 60.07 C186.6 59.96 183.73 59.89 180.85 59.84 C179.81 59.81 178.77 59.79 177.69 59.77 C175.51 59.72 173.33 59.67 171.15 59.63 C167.8 59.56 164.46 59.48 161.11 59.41 C158.98 59.36 156.86 59.32 154.73 59.27 C153.23 59.24 153.23 59.24 151.7 59.2 C150.77 59.18 149.85 59.17 148.89 59.15 C147.67 59.12 147.67 59.12 146.42 59.1 C144.16 59.19 142.33 59.43 140.19 60.19 C138.03 62.68 138.03 62.68 136.06 65.69 C132.37 71.1 132.37 71.1 130.19 72.19 C128.34 72.31 126.49 72.36 124.64 72.39 C123.48 72.41 122.31 72.43 121.12 72.45 C119.23 72.48 119.23 72.48 117.3 72.5 C116.02 72.52 114.74 72.55 113.41 72.57 C110 72.62 106.58 72.67 103.16 72.72 C99.68 72.77 96.19 72.83 92.71 72.88 C85.87 72.99 79.03 73.09 72.19 73.19 C72.16 73.88 72.14 74.57 72.11 75.28 C72.05 76.18 72 77.09 71.94 78.02 C71.89 78.92 71.85 79.81 71.8 80.74 C71.19 83.19 71.19 83.19 69.29 84.79 C66.65 86.14 63.97 87.16 61.19 88.19 C59.93 88.72 58.68 89.25 57.43 89.8 C53.96 91.3 50.48 92.75 46.98 94.17 C44.79 95.07 42.61 95.98 40.43 96.9 C39.03 97.47 37.63 98.05 36.23 98.62 C35.58 98.89 34.93 99.16 34.26 99.45 C30.9 100.8 28.62 101.64 25.19 100.19 C28.11 97.02 30.99 94.98 34.77 92.91 C35.84 92.31 36.92 91.72 38.04 91.1 C39.72 90.19 39.72 90.19 41.44 89.25 C44.72 87.45 47.99 85.65 51.25 83.8 C54.19 82.19 54.19 82.19 56.76 81.09 C59.12 80 60.56 79.23 62.19 77.19 C63.06 72.77 62.76 68.53 62.44 64.06 C62.3 61.71 62.18 59.35 62.08 56.99 C61.97 55.43 61.97 55.43 61.86 53.84 C62.19 51.19 62.19 51.19 64.02 49.4 C66.35 48.1 68.68 47.09 71.19 46.19 C63.97 46.85 57.02 48.18 49.94 49.69 C41.34 51.47 32.99 53 24.19 53.19 C26.69 55.74 29.24 58.1 32 60.38 C36.39 64.17 39.79 68.51 43.19 73.19 C42.86 73.85 42.53 74.51 42.19 75.19 C37.65 74.63 34.32 72.67 30.5 70.31 C15.99 61.7 0.44 60.16 -15.91 64.32 C-19.38 65.36 -22.56 66.6 -25.81 68.19 C-25 68.15 -24.19 68.12 -23.36 68.08 C-13.03 67.83 -4.69 68.33 3.44 75.19 C14.74 86.33 22.75 103.74 23.31 119.75 C23.27 120.55 23.23 121.36 23.19 122.19 C23.91 122.46 24.63 122.74 25.38 123.03 C28.06 124.14 30.57 125.38 33.13 126.75 C34.04 127.24 34.96 127.72 35.9 128.22 C37.8 129.24 39.71 130.26 41.62 131.29 C42.98 132.01 42.98 132.01 44.38 132.75 C45.21 133.2 46.03 133.64 46.89 134.1 C50.58 135.85 53.81 136.31 57.88 136.35 C59.29 136.36 59.29 136.36 60.73 136.38 C61.75 136.38 62.78 136.39 63.83 136.39 C65.46 136.41 65.46 136.41 67.11 136.42 C70.7 136.45 74.28 136.48 77.86 136.5 C80.34 136.52 82.83 136.55 85.31 136.57 C91.18 136.62 97.04 136.66 102.91 136.7 C110.25 136.76 117.59 136.82 124.93 136.88 C138.01 136.99 151.1 137.09 164.19 137.19 C164.19 138.18 164.19 139.17 164.19 140.19 C135.9 145.87 107.6 151.54 79.29 157.11 C77.17 157.53 75.04 157.95 72.92 158.37 C69.95 158.96 66.97 159.55 63.99 160.13 C63.07 160.31 62.15 160.49 61.19 160.68 C56.78 161.54 52.37 162.33 47.92 162.97 C47.09 163.09 46.26 163.21 45.41 163.34 C43.87 163.56 42.34 163.77 40.8 163.95 C37.28 164.46 35.37 165.03 32.66 167.38 C30.9 169.65 30.9 169.65 29.5 172.09 C27.32 175.58 24.22 176.55 20.45 177.73 C15.36 178.76 10.05 178.53 4.87 178.59 C3.43 178.61 1.99 178.65 0.54 178.7 C-10.42 179.05 -19.61 177.73 -28.14 170.11 C-29.81 168.19 -29.81 168.19 -29.81 166.19 C-39.2 163.95 -48.61 161.77 -58.03 159.67 C-59.51 159.34 -59.51 159.34 -61.01 159.01 C-65.19 158.08 -69.37 157.15 -73.55 156.22 C-84.4 153.8 -95.25 151.38 -106.03 148.66 C-106.8 148.46 -107.56 148.27 -108.35 148.08 C-111.83 147.2 -115.31 146.31 -118.78 145.39 C-125.62 143.64 -130.89 142.95 -137.81 144.19 C-151.23 145.32 -162.32 143.56 -173.07 134.77 C-180.83 127.71 -185.29 119.22 -185.98 108.61 C-186.07 96.24 -183.4 86.92 -174.94 77.62 C-161.37 64.8 -142.49 60.97 -124.81 57.19 C-125.45 56.61 -126.09 56.03 -126.75 55.43 C-129.34 52.61 -129.74 50.87 -130.05 47.16 C-129.81 45.19 -129.81 45.19 -127.56 42.25 C-123.56 39.25 -121.27 39.2 -116.42 39.61 C-111.35 39.95 -107.31 40.12 -102.91 37.39 C-100.66 35.21 -98.51 32.97 -96.36 30.7 C-70 5.04 -35.1 -0.04 0 0 Z M-55.6 12.61 C-56.29 12.92 -56.99 13.22 -57.71 13.53 C-58.78 14.01 -58.78 14.01 -59.88 14.5 C-60.59 14.81 -61.31 15.12 -62.06 15.44 C-65.59 17 -68.17 18.3 -70.81 21.19 C-66.3 19.75 -61.97 18.05 -57.62 16.19 C-56.41 15.67 -55.2 15.16 -53.96 14.62 C-50.75 13.26 -50.75 13.26 -47.81 11.19 C-51.33 11.19 -52.58 11.3 -55.6 12.61 Z M38.19 13.19 C40.97 15.49 43.6 17.58 46.86 19.15 C47.52 19.48 48.19 19.8 48.88 20.14 C49.9 20.63 49.9 20.63 50.94 21.12 C52.29 21.78 53.64 22.43 54.98 23.09 C55.67 23.42 56.36 23.75 57.07 24.09 C59.19 25.19 59.19 25.19 61.32 26.54 C67.4 30.36 72.1 30.84 79.19 30.56 C80.24 30.54 81.29 30.52 82.37 30.5 C84.69 30.45 87.01 30.38 89.33 30.31 C92.81 30.2 96.28 30.12 99.75 30.06 C102.76 30 105.77 29.93 108.78 29.86 C110.25 29.83 111.73 29.8 113.21 29.77 C115.29 29.72 117.37 29.66 119.46 29.6 C121.26 29.55 121.26 29.55 123.1 29.51 C126.01 29.21 127.73 28.7 130.19 27.19 C106.53 15.58 85.09 13.01 58.94 13.12 C56.92 13.13 54.9 13.13 52.89 13.14 C47.99 13.15 43.09 13.17 38.19 13.19 Z M-47.81 11.19 C-46.78 11.16 -46.78 11.16 -45.72 11.12 C-15.45 10.33 -15.45 10.33 -4.75 18.81 C-0.04 23.44 3.13 29.12 3.22 35.84 C3.21 37 3.21 37 3.19 38.19 C-20.39 42.76 -20.39 42.76 -31.81 43.19 C-29.53 40.91 -28.23 40.57 -25.16 39.71 C-24.24 39.46 -23.32 39.2 -22.37 38.93 C-21.4 38.66 -20.43 38.4 -19.44 38.12 C-18.48 37.86 -17.52 37.59 -16.53 37.31 C-9.13 35.24 -9.13 35.24 -6.57 34.79 C-5.99 34.59 -5.41 34.39 -4.81 34.19 C-3.46 31.18 -3.46 31.18 -4.94 28.25 C-9.06 21.51 -15.38 19.09 -22.81 17.19 C-26.18 16.9 -29.44 16.92 -32.81 17.19 C-33.3 18.04 -33.78 18.88 -34.28 19.76 C-34.6 20.32 -34.92 20.88 -35.25 21.46 C-35.96 22.7 -36.68 23.95 -37.39 25.2 C-39.29 28.53 -41.2 31.85 -43.12 35.16 C-43.49 35.8 -43.86 36.43 -44.24 37.08 C-44.95 38.3 -45.66 39.52 -46.37 40.74 C-48.24 43.77 -48.24 43.77 -48.81 47.19 C-40.21 47.44 -32.06 46.73 -23.56 45.38 C-22.39 45.19 -21.22 45.01 -20.01 44.83 C-5.57 43.82 -5.57 43.82 7.19 39.19 C7.96 32.08 6.16 27.1 2.19 21.19 C-3.92 14.22 -11.65 10.28 -20.81 9.19 C-24.69 9.02 -28.56 9 -32.44 9 C-33.47 8.99 -34.51 8.98 -35.58 8.96 C-36.58 8.96 -37.57 8.96 -38.6 8.96 C-39.51 8.95 -40.41 8.95 -41.34 8.94 C-43.94 9.2 -45.58 9.87 -47.81 11.19 Z M-89.81 40.19 C-90.8 40.85 -91.79 41.51 -92.81 42.19 C-93.47 41.53 -94.13 40.87 -94.81 40.19 C-98.77 44.81 -102.73 49.43 -106.81 54.19 C-106.48 54.85 -106.15 55.51 -105.81 56.19 C-100.06 55.45 -94.31 54.69 -88.57 53.9 C-86.62 53.63 -84.66 53.38 -82.71 53.13 C-79.89 52.77 -77.08 52.38 -74.27 51.99 C-73.4 51.88 -72.53 51.78 -71.63 51.67 C-66.15 50.87 -63.36 49.72 -59.81 45.19 C-58.41 43.26 -58.41 43.26 -57.35 41.3 C-56.94 40.59 -56.54 39.89 -56.12 39.16 C-55.71 38.43 -55.3 37.69 -54.88 36.94 C-51.7 31.39 -48.47 25.97 -44.77 20.75 C-43.64 19.21 -43.64 19.21 -43.81 17.19 C-59.32 17.19 -77.77 31.42 -89.81 40.19 Z M-72.81 21.19 C-73.8 22.18 -74.79 23.17 -75.81 24.19 C-74.16 23.53 -72.51 22.87 -70.81 22.19 C-71.47 21.86 -72.13 21.53 -72.81 21.19 Z M-77.81 24.19 C-78.8 25.67 -78.8 25.67 -79.81 27.19 C-78.49 26.53 -77.17 25.87 -75.81 25.19 C-76.47 24.86 -77.13 24.53 -77.81 24.19 Z M-82.81 28.19 C-84.45 30.15 -84.45 30.15 -85.81 32.19 C-82.69 30.88 -82.69 30.88 -80.81 28.19 C-81.47 28.19 -82.13 28.19 -82.81 28.19 Z M97.19 45.19 C98.31 45.2 99.44 45.21 100.6 45.22 C104.78 45.26 108.96 45.32 113.15 45.4 C114.96 45.42 116.77 45.44 118.57 45.46 C121.18 45.48 123.78 45.53 126.39 45.58 C127.59 45.58 127.59 45.58 128.83 45.58 C134.1 45.72 136.07 46.76 140.19 50.19 C146.89 52.64 154.15 52.58 161.2 52.74 C162.32 52.77 163.45 52.8 164.6 52.83 C166.97 52.89 169.33 52.94 171.7 52.99 C175.31 53.06 178.92 53.17 182.53 53.28 C184.83 53.33 187.14 53.38 189.45 53.43 C190.52 53.47 191.59 53.5 192.7 53.54 C199.13 53.63 202.93 52.96 208.19 49.19 C208.19 47.87 208.19 46.55 208.19 45.19 C183.04 35.8 118.13 24.24 97.19 45.19 Z M-122.81 47.19 C-123.4 49.73 -123.4 49.73 -122.81 52.19 C-122.15 52.85 -121.49 53.51 -120.81 54.19 C-118.05 54.19 -116.42 53.73 -114.34 51.88 C-112.72 50.13 -112.72 50.13 -110.81 47.19 C-111.14 46.2 -111.47 45.21 -111.81 44.19 C-116.39 43.87 -119.25 44.15 -122.81 47.19 Z M76.19 58.19 C76.02 60.69 76.02 60.69 76.19 63.19 C77.97 64.97 80.61 64.42 83.03 64.5 C84.25 64.55 85.47 64.59 86.73 64.63 C92.01 64.79 97.3 64.93 102.59 65.06 C105.6 65.17 108.58 65.35 111.58 65.6 C119.34 66.22 119.34 66.22 126.21 62.96 C128.49 60.47 130.4 58.04 132.19 55.19 C131.69 54.2 131.69 54.2 131.19 53.19 C125.1 53.09 119.02 53.02 112.94 52.97 C110.87 52.95 108.81 52.92 106.74 52.89 C103.76 52.84 100.77 52.81 97.79 52.8 C96.88 52.78 95.97 52.76 95.03 52.73 C88.85 52.73 80.82 53.56 76.19 58.19 Z M211.19 56.19 C210.86 57.51 210.53 58.83 210.19 60.19 C211.67 61.18 211.67 61.18 213.19 62.19 C213.19 60.21 213.19 58.23 213.19 56.19 C212.53 56.19 211.87 56.19 211.19 56.19 Z M-90.55 67.91 C-96.52 68.48 -102.48 69.03 -108.45 69.58 C-109.89 69.71 -111.34 69.84 -112.78 69.98 C-122.39 70.87 -131.99 71.59 -141.64 71.81 C-145.75 71.94 -149.16 72.2 -152.81 74.19 C-154.25 77.06 -154.08 78.98 -153.81 82.19 C-152.86 84.92 -151.61 87.48 -150.31 90.06 C-149.98 90.75 -149.64 91.44 -149.3 92.15 C-148.48 93.83 -147.65 95.51 -146.81 97.19 C-145.84 93.8 -145.95 91.62 -146.81 88.19 C-144.19 90.53 -142.79 92.89 -141.25 96.04 C-140.55 97.44 -140.55 97.44 -139.83 98.87 C-138.86 100.84 -137.89 102.81 -136.93 104.78 C-136.22 106.18 -136.22 106.18 -135.5 107.6 C-134.87 108.88 -134.87 108.88 -134.23 110.19 C-133.01 112.32 -133.01 112.32 -130.96 112.84 C-127.37 113.42 -123.88 112.59 -120.33 111.97 C-119.51 111.84 -118.7 111.7 -117.86 111.56 C-115.26 111.13 -112.66 110.69 -110.06 110.25 C-108.3 109.96 -106.53 109.66 -104.77 109.37 C-100.45 108.65 -96.13 107.92 -91.81 107.19 C-91.81 106.86 -91.81 106.53 -91.81 106.19 C-99.73 106.19 -107.65 106.19 -115.81 106.19 C-112.49 104.53 -110.38 103.76 -106.85 103.09 C-105.86 102.9 -104.88 102.71 -103.86 102.51 C-102.81 102.31 -101.75 102.12 -100.66 101.91 C-98.42 101.47 -96.17 101.04 -93.93 100.6 C-90.4 99.92 -86.87 99.25 -83.33 98.58 C-79.92 97.93 -76.51 97.26 -73.1 96.6 C-72.04 96.4 -70.99 96.2 -69.9 96 C-63.1 94.67 -58.17 93.28 -53.69 87.71 C-53.15 87.04 -52.61 86.38 -52.05 85.69 C-51.5 84.99 -50.95 84.29 -50.38 83.56 C-49.52 82.49 -49.52 82.49 -48.64 81.39 C-41.66 73.91 -41.66 73.91 -37.81 65.19 C-55.51 64.65 -72.96 66.24 -90.55 67.91 Z M-169.62 84.98 C-175.15 90.56 -177.94 98.12 -178.06 105.88 C-178 111.28 -177.36 115.42 -174.81 120.19 C-174.34 121.09 -174.34 121.09 -173.85 122.02 C-169.81 128.59 -163.18 131.93 -156.12 134.56 C-152.61 135.23 -149.38 135.23 -145.81 135.19 C-145.42 132.4 -145.05 129.61 -144.69 126.81 C-144.58 126.02 -144.46 125.22 -144.35 124.41 C-144.09 122.34 -143.94 120.26 -143.81 118.19 C-145.77 115.88 -145.77 115.88 -149.25 115.38 C-152.81 114.19 -152.81 114.19 -154.81 111.88 C-155.99 108.7 -155.95 107.36 -154.81 104.19 C-154.28 103.49 -153.74 102.78 -153.19 102.06 C-152.51 101.13 -152.51 101.13 -151.81 100.19 C-152.48 97.14 -152.48 97.14 -154.55 96.09 C-155.26 95.77 -155.96 95.45 -156.69 95.12 C-159.27 93.94 -161.42 92.78 -163.81 91.19 C-163.81 90.2 -163.81 89.21 -163.81 88.19 C-162.99 87.73 -162.16 87.28 -161.31 86.81 C-160.49 86.28 -159.66 85.74 -158.81 85.19 C-158.39 82.56 -158.39 82.56 -158.81 80.19 C-163.96 80.19 -165.72 81.83 -169.62 84.98 Z M-29.48 87.04 C-37.98 98.6 -38.39 113.86 -36.47 127.64 C-34.46 139.18 -31.78 153.75 -22.18 161.5 C-18.01 164.18 -14.67 164.81 -9.81 164.19 C-2.53 161.42 2 156.2 5.19 149.19 C10.83 132.25 8.68 110.86 1.06 94.82 C-2.4 88.79 -7.39 83.96 -13.81 81.19 C-20.44 80.44 -25.07 82.15 -29.48 87.04 Z M-45.81 91.19 C-48.01 94.99 -48.01 94.99 -48.81 99.19 C-48.15 99.19 -47.49 99.19 -46.81 99.19 C-46.15 96.55 -45.49 93.91 -44.81 91.19 C-45.14 91.19 -45.47 91.19 -45.81 91.19 Z M-90.81 105.19 C-86.81 106.19 -86.81 106.19 -86.81 106.19 Z M-49.81 109.19 C-51.35 111.46 -52.79 113.79 -54.24 116.12 C-55.81 118.19 -55.81 118.19 -58.81 119.19 C-60.48 119.41 -62.16 119.6 -63.83 119.76 C-64.86 119.86 -65.88 119.96 -66.93 120.06 C-68.58 120.22 -68.58 120.22 -70.26 120.38 C-71.39 120.49 -72.52 120.6 -73.68 120.71 C-77.29 121.06 -80.89 121.41 -84.5 121.75 C-86.94 121.99 -89.39 122.22 -91.83 122.46 C-97.82 123.04 -103.82 123.61 -109.81 124.19 C-109.81 124.52 -109.81 124.85 -109.81 125.19 C-108.78 125.21 -107.75 125.24 -106.68 125.26 C-102.8 125.36 -98.92 125.46 -95.04 125.56 C-93.37 125.6 -91.69 125.64 -90.02 125.68 C-80.92 125.91 -71.87 126.16 -62.81 127.19 C-62.81 128.51 -62.81 129.83 -62.81 131.19 C-65.73 132.65 -68.17 132.19 -71.43 132.07 C-72.82 132.02 -74.22 131.97 -75.61 131.92 C-76.35 131.89 -77.08 131.86 -77.84 131.84 C-94.51 131.21 -111.14 131.06 -127.81 131.19 C-127.48 132.18 -127.15 133.17 -126.81 134.19 C-87.71 136.66 -87.71 136.66 -47.81 139.19 C-46.7 135.85 -46.97 134.84 -47.75 131.5 C-49.24 124.08 -48.98 116.72 -48.81 109.19 C-49.14 109.19 -49.47 109.19 -49.81 109.19 Z " fill="#000000" transform="translate(262.8125,40.8125)"/>
<path d="M0 0 C2.2 0.01 4.41 0.03 6.61 0.04 C11.18 0.07 15.75 0.1 20.33 0.14 C26.81 0.2 33.3 0.24 39.79 0.27 C52.69 0.34 65.6 0.43 78.51 0.54 C79.65 0.55 80.79 0.55 81.97 0.56 C92.78 0.65 103.59 0.74 114.4 0.83 C128.07 0.95 141.75 1.06 155.42 1.15 C165.14 1.22 174.86 1.3 184.58 1.38 C190.36 1.44 196.13 1.48 201.9 1.52 C207.28 1.55 212.67 1.6 218.05 1.65 C220.02 1.67 222 1.68 223.97 1.69 C226.66 1.7 229.34 1.73 232.03 1.77 C232.81 1.77 233.6 1.77 234.41 1.76 C239.73 1.86 239.73 1.86 241.97 3.74 C242.55 4.46 242.55 4.46 243.14 5.2 C246 5.17 246 5.17 249.07 4.45 C250.11 4.25 251.15 4.05 252.23 3.84 C253.85 3.49 255.47 3.11 257.07 2.67 C260.66 1.86 264.34 2.04 268.01 2.03 C269.36 2.02 269.36 2.02 270.75 2.01 C273.79 1.99 276.83 1.98 279.87 1.96 C282.05 1.95 284.23 1.94 286.41 1.92 C306.27 1.81 326.13 1.75 345.99 1.71 C360.67 1.67 375.36 1.61 390.04 1.52 C400.37 1.46 410.69 1.42 421.01 1.41 C427.18 1.4 433.34 1.38 439.51 1.33 C445.31 1.28 451.11 1.26 456.91 1.28 C459.04 1.28 461.17 1.27 463.3 1.24 C466.2 1.2 469.11 1.21 472.01 1.24 C472.86 1.21 473.7 1.19 474.57 1.17 C478.19 1.24 480.29 1.4 482.97 3.95 C484.52 5.98 485.86 8 487.14 10.2 C487.69 11.14 488.25 12.08 488.83 13.04 C489.47 14.3 489.47 14.3 490.13 15.58 C490.61 16.5 491.08 17.42 491.57 18.37 C492.05 19.31 492.52 20.24 493.01 21.2 C493.51 22.17 494.01 23.14 494.52 24.13 C495.73 26.48 496.94 28.84 498.14 31.2 C497.48 32.19 496.82 33.18 496.14 34.2 C494.11 34.59 494.11 34.59 491.54 34.6 C490.57 34.62 489.59 34.63 488.59 34.64 C487.51 34.64 486.42 34.64 485.31 34.64 C484.16 34.65 483.02 34.66 481.84 34.67 C478.63 34.69 475.42 34.7 472.22 34.71 C468.73 34.72 465.23 34.75 461.74 34.77 C454.81 34.82 447.88 34.84 440.95 34.87 C435.27 34.89 429.58 34.91 423.9 34.94 C398.31 35.07 372.72 35.15 347.14 35.2 C346.1 35.21 345.06 35.21 344 35.21 C312 35.28 280 35.31 248 35.33 C243.62 35.33 239.25 35.33 234.87 35.33 C222.29 35.34 209.72 35.34 197.14 35.34 C193.29 35.34 189.44 35.34 185.58 35.34 C181.12 35.34 176.65 35.34 172.19 35.34 C170.57 35.33 168.95 35.33 167.33 35.34 C159.21 35.35 151.21 35.21 143.14 34.2 C142.48 32.55 141.82 30.9 141.14 29.2 C139.93 29.48 138.72 29.76 137.48 30.04 C135.87 30.41 134.25 30.78 132.64 31.14 C131.84 31.32 131.05 31.51 130.24 31.69 C129.06 31.96 129.06 31.96 127.86 32.23 C127.14 32.39 126.43 32.56 125.7 32.72 C119.49 33.89 113.41 34.35 107.09 34.35 C106.32 34.35 105.54 34.36 104.75 34.36 C102.15 34.37 99.55 34.37 96.95 34.37 C95.04 34.38 93.14 34.38 91.23 34.38 C84.87 34.4 78.5 34.39 72.14 34.39 C69.92 34.39 67.69 34.39 65.47 34.39 C22.55 34.38 -20.36 33.96 -63.28 33.42 C-69.33 33.35 -75.39 33.28 -81.45 33.21 C-88.9 33.13 -96.35 33.03 -103.8 32.93 C-107.65 32.88 -111.5 32.83 -115.35 32.79 C-119.57 32.74 -123.78 32.68 -127.99 32.61 C-129.23 32.6 -130.47 32.59 -131.75 32.58 C-132.89 32.56 -134.02 32.54 -135.19 32.52 C-136.66 32.5 -136.66 32.5 -138.16 32.48 C-141.04 32.19 -143.24 31.4 -145.86 30.2 C-143.07 26.02 -139.65 25.9 -134.99 24.89 C-134.06 24.68 -133.12 24.47 -132.16 24.25 C-123.62 22.32 -115.05 20.52 -106.49 18.71 C-97.86 16.88 -89.26 14.93 -80.67 12.93 C-77.32 12.15 -73.96 11.37 -70.61 10.61 C-60.25 8.27 -60.25 8.27 -49.97 5.65 C-33.1 1.19 -17.43 -0.2 0 0 Z " fill="#E40000" transform="translate(520.863525390625,179.795654296875)"/>
<path d="M0 0 C3.56 -0.15 7.12 -0.23 10.69 -0.31 C12.2 -0.38 12.2 -0.38 13.74 -0.44 C21.17 -0.56 21.17 -0.56 25.04 2.05 C27.26 5.4 28.62 8.68 29.75 12.5 C29.96 13.15 30.17 13.8 30.38 14.47 C31.47 17.95 32.32 21.42 33 25 C33.64 27.01 34.31 29.01 35 31 C35.5 32.49 35.5 32.49 36 34 C36.54 33.73 37.07 33.46 37.62 33.19 C39.43 32.29 41.27 31.47 43.12 30.69 C46.53 28.69 46.66 27.56 48 24 C49.66 22.99 51.33 21.99 53 21 C54.34 19.01 55.68 17.01 57 15 C58.33 14.32 59.66 13.65 61 13 C62.04 11.36 63.04 9.69 64 8 C66.38 5.32 67.57 4.14 71 3 C71.33 2.01 71.66 1.02 72 0 C78.27 0 84.54 0 91 0 C95.49 8.97 88.84 21.54 86 30.75 C85.54 32.24 85.09 33.74 84.63 35.23 C83.43 39.16 82.23 43.08 81 47 C80.66 48.12 80.33 49.25 79.98 50.4 C79 53 79 53 77 54 C74.5 54.2 72.06 54.32 69.56 54.38 C68.54 54.43 68.54 54.43 67.5 54.49 C65.5 54.52 65.5 54.52 62 54 C59.99 51.57 58.89 50.2 59.19 47 C59.59 46.01 59.59 46.01 60 45 C60.35 44.09 60.7 43.19 61.06 42.25 C61.53 41.14 61.53 41.14 62 40 C60.51 39.01 60.51 39.01 59 38 C58.58 38.51 58.15 39.02 57.71 39.54 C45.84 53.47 45.84 53.47 39.14 54.2 C36.9 54.31 34.68 54.32 32.44 54.31 C31.67 54.33 30.9 54.34 30.11 54.36 C24.58 54.37 24.58 54.37 22.09 52.79 C20.28 49.82 19.29 46.65 18.16 43.38 C16.84 40.68 15.5 39.59 13 38 C11.24 41.28 10 44.01 9.25 47.69 C8 51 8 51 5.06 52.94 C0.32 54.54 -5.1 54.99 -10 54 C-11.91 52.22 -11.91 52.22 -13 50 C-12.64 48.04 -12.64 48.04 -11.69 46.06 C-10.56 43.5 -10 42.15 -10 39.31 C-10 36.18 -8.63 34.64 -7 32 C-5.8 28.41 -5.01 25.06 -4.5 21.31 C-4.05 18.33 -3.47 16.57 -2 14 C-0.63 11.07 -0.63 11.07 -2.12 8.69 C-3 6 -3 6 -1.55 2.83 C-1.04 1.9 -0.53 0.96 0 0 Z " fill="#E40000" transform="translate(596,120)"/>
<path d="M0 0 C1.1 -0.01 2.2 -0.02 3.33 -0.03 C5.1 -0.04 5.1 -0.04 6.91 -0.04 C8.13 -0.05 9.35 -0.05 10.61 -0.06 C13.19 -0.07 15.78 -0.08 18.36 -0.08 C22.3 -0.09 26.25 -0.12 30.19 -0.15 C32.7 -0.16 35.21 -0.16 37.72 -0.17 C39.49 -0.19 39.49 -0.19 41.29 -0.2 C48.71 -0.18 54.11 0.2 59.89 5.22 C62.94 8.86 62.72 11.46 62.52 16.16 C61.54 20.94 60.12 25.6 58.77 30.29 C58.42 31.55 58.07 32.81 57.71 34.11 C57.36 35.33 57.02 36.54 56.66 37.79 C56.34 38.9 56.03 40 55.7 41.13 C52.99 48.04 48.36 50.89 41.89 53.95 C36.24 55.98 30.88 55.98 24.94 55.89 C23.69 55.89 22.44 55.89 21.15 55.89 C17.85 55.88 14.56 55.85 11.27 55.81 C9.26 55.79 7.25 55.79 5.24 55.79 C1.35 55.81 -2.54 55.79 -6.44 55.76 C-8.22 55.77 -8.22 55.77 -10.04 55.77 C-17.81 55.64 -23.53 54.74 -29.48 49.35 C-32.59 42.55 -29.21 34.28 -27.34 27.52 C-26.8 25.54 -26.28 23.55 -25.77 21.57 C-25.25 19.68 -25.25 19.68 -24.72 17.75 C-24.41 16.6 -24.1 15.46 -23.79 14.28 C-21.69 9.27 -17.98 6.2 -13.42 3.41 C-12.77 3 -12.12 2.6 -11.45 2.18 C-7.68 0.23 -4.2 0.03 0 0 Z M-3.48 15.16 C-2.49 16.15 -1.5 17.14 -0.48 18.16 C-0.78 20.73 -0.78 20.73 -1.67 23.72 C-3.27 29.23 -4.34 34.45 -5.48 40.16 C6.4 40.16 18.28 40.16 30.52 40.16 C32.59 35.32 34.28 30.98 35.7 25.97 C36.05 24.78 36.39 23.59 36.75 22.37 C37.67 19.06 37.67 19.06 37.52 15.16 C23.99 15.16 10.46 15.16 -3.48 15.16 Z " fill="#000000" transform="translate(357.483642578125,116.8388671875)"/>
<path d="M0 0 C0.85 -0 1.69 -0 2.56 -0 C4.35 -0 6.14 -0 7.93 0 C10.62 0.01 13.31 0 16 -0 C21.09 -0.01 26.19 0.04 31.29 0.13 C32.04 0.15 32.79 0.16 33.56 0.17 C35.61 0.22 37.65 0.3 39.7 0.39 C40.84 0.44 41.98 0.48 43.15 0.53 C47.74 1.41 50.84 3.73 54.16 6.95 C57.73 13.88 53.75 22.68 51.73 29.57 C51.24 31.35 51.24 31.35 50.75 33.17 C48.43 41.13 45.83 47.79 38.5 52.21 C31.9 55.6 25.75 55.72 18.44 55.66 C16.62 55.67 16.62 55.67 14.77 55.68 C12.22 55.68 9.67 55.67 7.12 55.65 C3.23 55.63 -0.65 55.65 -4.54 55.68 C-7.03 55.68 -9.51 55.67 -12 55.66 C-13.15 55.67 -14.31 55.68 -15.5 55.69 C-23.2 55.6 -28.74 54.61 -34.71 49.38 C-38.06 41.84 -34.29 32.95 -32.09 25.57 C-31.75 24.38 -31.42 23.18 -31.08 21.96 C-28.78 14.13 -26.32 8.38 -19.55 3.61 C-18.92 3.33 -18.3 3.05 -17.65 2.76 C-17.02 2.46 -16.39 2.16 -15.74 1.86 C-10.52 -0.01 -5.47 -0.01 0 0 Z M-8.71 15.13 C-8.05 16.12 -7.39 17.11 -6.71 18.13 C-6.85 20.23 -6.85 20.23 -7.4 22.63 C-7.6 23.51 -7.79 24.38 -8 25.28 C-9.16 29.92 -10.4 34.53 -11.71 39.13 C-10.55 40.52 -10.55 40.52 -7.38 40.25 C-5.91 40.25 -4.43 40.24 -2.96 40.23 C-2.18 40.23 -1.41 40.23 -0.61 40.23 C1.88 40.22 4.37 40.21 6.85 40.2 C8.53 40.19 10.21 40.19 11.9 40.18 C16.03 40.17 20.16 40.15 24.29 40.13 C25.49 36.53 26.67 32.93 27.85 29.32 C28.19 28.3 28.54 27.27 28.89 26.22 C29.21 25.23 29.53 24.25 29.86 23.24 C30.15 22.33 30.45 21.43 30.76 20.49 C31.53 18 31.53 18 30.29 15.13 C17.42 15.13 4.55 15.13 -8.71 15.13 Z " fill="#000000" transform="translate(529.7109375,118.8671875)"/>
<path d="M0 0 C0.9 -0 1.8 -0 2.72 -0 C4.63 -0 6.53 -0 8.43 0 C11.31 0.01 14.18 0 17.06 -0 C43.83 -0.02 43.83 -0.02 49.71 5.13 C51.76 7.37 52.67 8.51 52.86 11.57 C52.75 12.42 52.64 13.26 52.52 14.13 C52.43 14.98 52.33 15.82 52.23 16.7 C51.71 19.13 51.71 19.13 50.78 20.96 C48.93 24.73 48.27 28.94 47.39 33.03 C45.66 40.46 42.69 46.44 36.15 50.74 C25.72 56.7 13.22 55.47 1.65 55.15 C-1.48 55.07 -4.61 55.03 -7.73 54.99 C-9.74 54.94 -11.76 54.9 -13.77 54.85 C-14.69 54.84 -15.61 54.83 -16.56 54.82 C-22.75 54.61 -27.97 53.43 -33.29 50.13 C-35.92 46.73 -36.51 44.25 -36.16 40.07 C-35.56 36.54 -34.13 34.2 -32.29 31.13 C-32.03 29.13 -31.78 27.13 -31.6 25.12 C-31.13 22.14 -29.69 19.77 -28.29 17.13 C-28.12 16.29 -27.96 15.44 -27.79 14.57 C-26.96 10.54 -25.25 7.87 -21.98 5.37 C-21.14 4.88 -20.29 4.39 -19.41 3.88 C-18.57 3.38 -17.73 2.88 -16.86 2.37 C-11.41 -0.25 -5.92 -0.01 0 0 Z M-5.29 14.13 C-7.36 17.47 -8.71 20.06 -9.35 23.95 C-9.93 27.24 -10.62 30.41 -11.54 33.63 C-11.79 34.79 -12.03 35.94 -12.29 37.13 C-9.52 39.91 -6.83 39.59 -3.1 39.76 C-2.04 39.81 -2.04 39.81 -0.96 39.86 C1.26 39.97 3.49 40.05 5.71 40.13 C6.42 40.17 7.13 40.2 7.87 40.24 C9.9 40.33 11.93 40.39 13.96 40.45 C15.16 40.48 16.36 40.52 17.6 40.56 C21.33 40.05 22.45 39.07 24.71 36.13 C25.38 34.2 25.38 34.2 25.71 32.13 C26.21 30.99 26.21 30.99 26.71 29.82 C28.37 25.35 29.47 20.71 27.71 16.13 C25.79 14.21 22.24 14.88 19.61 14.82 C18.9 14.8 18.2 14.77 17.47 14.75 C15.19 14.69 12.92 14.63 10.65 14.57 C9.11 14.53 7.57 14.48 6.04 14.44 C2.26 14.33 -1.51 14.23 -5.29 14.13 Z " fill="#E40000" transform="translate(723.2890625,120.8671875)"/>
<path d="M0 0 C2.93 0.08 5.87 0.12 8.8 0.17 C10.68 0.21 12.56 0.26 14.44 0.31 C15.75 0.33 15.75 0.33 17.07 0.34 C23.33 0.55 27.68 1.71 32.35 6.14 C34.88 10.42 34.34 14.33 33.23 19.08 C32.1 22.56 30.96 26.04 29.79 29.51 C29.21 31.33 29.21 31.33 28.62 33.19 C28.23 34.36 27.84 35.53 27.43 36.74 C27.08 37.8 26.73 38.86 26.37 39.95 C23.69 45.6 18.25 50.4 12.57 52.98 C7.38 54.29 2.34 54.19 -2.99 54.19 C-4.72 54.2 -4.72 54.2 -6.49 54.2 C-8.92 54.21 -11.36 54.21 -13.79 54.2 C-17.51 54.2 -21.23 54.22 -24.95 54.25 C-27.32 54.25 -29.69 54.25 -32.05 54.25 C-33.16 54.26 -34.27 54.27 -35.42 54.28 C-42.02 54.24 -46.72 53.75 -51.9 49.26 C-53.68 45.51 -53.55 41.96 -53.02 37.89 C-51.65 34.2 -51.65 34.2 -50.02 30.89 C-48.98 28.14 -48.12 25.52 -47.67 22.61 C-46.54 15.35 -44.19 9.24 -38.31 4.51 C-27.19 -1.86 -12.3 -0.33 0 0 Z M-25.02 16.89 C-25.59 18.93 -26.08 21 -26.52 23.08 C-27.54 27.74 -28.64 32.32 -30.02 36.89 C-26.67 39.95 -24.35 40.27 -19.87 40.29 C-18.68 40.29 -17.49 40.29 -16.27 40.3 C-14.41 40.28 -14.41 40.28 -12.52 40.26 C-11.29 40.28 -10.05 40.29 -8.78 40.3 C-7.59 40.29 -6.4 40.29 -5.18 40.29 C-4.09 40.28 -3.01 40.28 -1.89 40.28 C1.34 39.84 2.68 39.18 4.98 36.89 C6.09 34.23 6.99 31.76 7.79 29.01 C8.02 28.31 8.25 27.6 8.48 26.87 C9.7 22.88 10.34 19.89 8.98 15.89 C6.5 13.41 0.44 14.72 -3.03 14.7 C-3.76 14.7 -4.48 14.7 -5.23 14.7 C-7.45 14.7 -9.66 14.68 -11.88 14.66 C-13.28 14.66 -14.68 14.66 -16.08 14.66 C-18 14.65 -18 14.65 -19.97 14.65 C-23.13 14.56 -23.13 14.56 -25.02 16.89 Z " fill="#E40000" transform="translate(901.022705078125,122.111572265625)"/>
<path d="M0 0 C14.77 -0.09 14.77 -0.09 21.23 4.04 C24.42 9.14 23.61 13.84 22.7 19.6 C20.68 28.14 15.12 34.03 8.1 39.04 C9.13 41.8 10.17 44.14 11.79 46.6 C13.1 49.04 13.1 49.04 12.85 51.29 C12.1 53.04 12.1 53.04 11.1 54.04 C-5.81 56.75 -5.81 56.75 -11.66 52.88 C-13.96 50.43 -15.46 47.74 -16.98 44.76 C-18.7 41.69 -18.7 41.69 -22.36 41.19 C-23.52 41.14 -24.69 41.09 -25.9 41.04 C-27.05 40.91 -27.05 40.91 -28.22 40.77 C-30.45 40.6 -30.45 40.6 -33.9 41.04 C-35.87 43.13 -35.87 43.13 -36.9 46.04 C-39.36 51.76 -39.36 51.76 -42.08 53.2 C-45.34 54.17 -48.13 54.34 -51.52 54.35 C-52.65 54.37 -53.77 54.39 -54.93 54.41 C-57.9 54.04 -57.9 54.04 -59.9 53.01 C-61.58 49.69 -60.19 46.56 -59.21 43.17 C-59.02 42.46 -58.83 41.75 -58.64 41.02 C-57.83 38.05 -56.96 35.21 -55.81 32.35 C-54.85 29.92 -54.38 27.61 -53.9 25.04 C-53.39 23.5 -52.87 21.95 -52.33 20.42 C-50.82 15.6 -50.74 11.4 -51.08 6.39 C-50.9 4.04 -50.9 4.04 -49.65 2.42 C-47.5 0.73 -46.41 0.65 -43.71 0.61 C-42.44 0.58 -42.44 0.58 -41.15 0.55 C-39.79 0.54 -39.79 0.54 -38.4 0.53 C-36.98 0.5 -36.98 0.5 -35.54 0.48 C-32.51 0.42 -29.49 0.39 -26.46 0.35 C-24.45 0.32 -22.45 0.29 -20.44 0.25 C-13.63 0.14 -6.81 0.07 0 0 Z M-28.9 14.04 C-29.89 15.53 -29.89 15.53 -30.9 17.04 C-30.57 18.03 -30.24 19.02 -29.9 20.04 C-30.08 20.72 -30.27 21.4 -30.46 22.1 C-30.6 22.74 -30.75 23.38 -30.9 24.04 C-27.75 27.19 -24.28 26.34 -19.98 26.36 C-18.82 26.36 -17.66 26.36 -16.46 26.35 C-14.72 26.38 -14.72 26.38 -12.95 26.4 C-11.84 26.4 -10.73 26.4 -9.59 26.41 C-8.57 26.41 -7.55 26.41 -6.5 26.41 C-3.88 26.25 -3.88 26.25 -2.09 24.74 C-0.16 22 -0.07 19.33 0.1 16.04 C-3.16 12.78 -7.13 13.75 -11.57 13.72 C-12.83 13.72 -14.1 13.73 -15.4 13.73 C-16.66 13.71 -17.92 13.7 -19.22 13.68 C-20.42 13.68 -21.62 13.68 -22.86 13.68 C-23.97 13.68 -25.08 13.67 -26.22 13.67 C-27.1 13.79 -27.99 13.92 -28.9 14.04 Z " fill="#E40000" transform="translate(991.895263671875,122.957763671875)"/>
<path d="M0 0 C51.97 -0.21 51.97 -0.21 77 1 C77.81 4.6 78.12 6.72 76.75 10.19 C76.37 11.2 76.37 11.2 75.98 12.23 C75 14 75 14 72 16 C69.18 16.23 69.18 16.23 65.8 16.2 C64.59 16.19 63.38 16.18 62.14 16.18 C60.24 16.15 60.24 16.15 58.31 16.12 C57.04 16.12 55.76 16.11 54.45 16.1 C51.3 16.07 48.15 16.04 45 16 C45.99 16.66 46.98 17.32 48 18 C46.63 25.63 44.69 33.01 42.5 40.44 C42.19 41.51 41.88 42.59 41.57 43.69 C41.27 44.72 40.97 45.75 40.66 46.81 C40.25 48.2 40.25 48.2 39.84 49.61 C39 52 39 52 37 55 C31.93 56.16 27.22 55.97 22.06 55.56 C21.38 55.51 20.69 55.46 19.99 55.4 C18.33 55.28 16.66 55.14 15 55 C13.6 50.81 15.05 47.69 16.31 43.61 C16.55 42.8 16.8 41.98 17.05 41.14 C17.84 38.53 18.64 35.92 19.44 33.31 C19.97 31.54 20.51 29.77 21.04 28.01 C22.35 23.67 23.67 19.33 25 15 C24.38 15.01 23.76 15.02 23.12 15.03 C20.31 15.07 17.5 15.1 14.69 15.12 C13.71 15.14 12.73 15.16 11.73 15.18 C10.79 15.18 9.85 15.19 8.89 15.2 C8.02 15.21 7.16 15.22 6.27 15.23 C4 15 4 15 1 13 C0.23 11.23 0.23 11.23 -0.25 9.19 C-0.42 8.52 -0.59 7.85 -0.77 7.17 C-1.04 4.59 -0.55 2.52 0 0 Z " fill="#000000" transform="translate(423,117)"/>
<path d="M0 0 C1.33 0.01 1.33 0.01 2.69 0.02 C3.7 0.01 4.71 0.01 5.74 0.01 C6.84 0.03 7.93 0.04 9.06 0.06 C10.19 0.07 11.33 0.07 12.5 0.07 C16.14 0.09 19.78 0.13 23.42 0.18 C25.83 0.19 28.23 0.2 30.64 0.2 C65.63 0.38 65.63 0.38 68.73 3.49 C68.49 7.95 68.09 11.37 64.73 14.49 C59.93 15.85 54.88 15.82 49.92 16.05 C49.04 16.09 48.16 16.14 47.24 16.18 C45.07 16.29 42.9 16.39 40.73 16.49 C39.49 20.8 38.29 25.13 37.11 29.46 C36.82 30.55 36.52 31.63 36.22 32.75 C35.6 35 34.99 37.25 34.39 39.5 C34.09 40.58 33.79 41.66 33.49 42.78 C33.22 43.75 32.96 44.73 32.69 45.74 C31.57 48.96 30.18 52.04 27.73 54.49 C24.91 54.64 22.12 54.72 19.3 54.74 C18.51 54.76 17.72 54.78 16.9 54.8 C14.61 54.82 14.61 54.82 10.73 54.49 C8.73 51.49 8.73 51.49 8.98 48.11 C9.63 44.99 10.52 42.41 11.73 39.49 C11.73 38.5 11.73 37.51 11.73 36.49 C13.04 33.27 14.43 30.12 15.92 26.99 C17 23.68 17.06 20.94 16.73 17.49 C13.56 15.37 13.05 15.29 9.48 15.49 C5.11 15.58 1.83 15.07 -2.27 13.49 C-4.44 10.23 -5.03 8.37 -5.27 4.49 C-3.8 1.8 -3.05 0.66 0 0 Z " fill="#E40000" transform="translate(786.2651824951172,121.51225280761719)"/>
<path d="M0 0 C3.16 1.92 3.39 5.02 4.28 8.42 C5.06 12.76 4.86 16.29 2.5 20.07 C0.75 21.07 0.75 21.07 -1.59 20.84 C-4.6 19.96 -6.17 18.83 -8.5 16.75 C-9.18 16.16 -9.87 15.57 -10.57 14.95 C-12.35 12.95 -12.85 11.68 -13.25 9.07 C-11.51 7.53 -9.76 6.01 -8 4.5 C-7.02 3.66 -6.05 2.81 -5.04 1.94 C-2.25 0.07 -2.25 0.07 0 0 Z " fill="#000000" transform="translate(259.24609375,177.93359375)"/>
<path d="M0 0 C3.31 1.7 4.52 2.87 6.31 6.19 C6.64 9.88 6.55 13.49 6.31 17.19 C4.67 17.92 4.67 17.92 2.31 18.19 C-0.45 16.68 -0.45 16.68 -3.38 14.5 C-4.83 13.44 -4.83 13.44 -6.32 12.36 C-8.68 10.2 -9.38 9.3 -9.69 6.19 C-3.73 0.26 -3.73 0.26 0 0 Z " fill="#000000" transform="translate(253.6875,128.8125)"/>
<path d="M0 0 C0.77 0.21 1.54 0.42 2.33 0.63 C2.67 2.52 3 4.42 3.33 6.32 C3.51 7.37 3.7 8.43 3.89 9.52 C4.28 12.28 4.41 14.85 4.33 17.63 C2.2 18.38 2.2 18.38 -0.67 18.63 C-3.75 17 -5.98 15.53 -8.11 12.75 C-8.93 9.64 -8.61 7.71 -7.67 4.63 C-3.73 -0.52 -3.73 -0.52 0 0 Z " fill="#000000" transform="translate(264.671875,153.37109375)"/>
<path d="M0 0 C7.75 0.75 7.75 0.75 10 3 C9.78 7.88 8.25 10.43 5 14 C2 13 2 13 1.02 11.07 C0.76 10.29 0.51 9.5 0.25 8.69 C-0.14 7.52 -0.14 7.52 -0.55 6.32 C-1.03 3.83 -0.81 2.38 0 0 Z " fill="#000000" transform="translate(240,166)"/>
<path d="M0 0 C6.63 5.04 6.63 5.04 8.06 8.75 C8 11 8 11 6 13 C3.68 13.4 1.34 13.74 -1 14 C-2.92 10.59 -3.1 8.46 -2.19 4.75 C-1 1 -1 1 0 0 Z " fill="#000000" transform="translate(241,145)"/>
<path d="M0 0 C2.96 2.81 5.44 5.18 7 9 C3.87 10.86 1.63 11.2 -2 11 C-3.15 7.45 -3.09 6.2 -1.56 2.69 C-1.05 1.8 -0.53 0.91 0 0 Z " fill="#000000" transform="translate(95,136)"/>
<path d="M0 0 C0.76 0.21 1.53 0.41 2.31 0.62 C2.64 2.94 2.97 5.25 3.31 7.62 C1.69 8.31 1.69 8.31 -0.69 8.62 C-3.94 7.19 -3.94 7.19 -6.69 5.62 C-6.38 3.75 -6.38 3.75 -5.69 1.62 C-2.69 -0.38 -2.69 -0.38 0 0 Z " fill="#000000" transform="translate(109.6875,163.375)"/>
<path d="M0 0 C2.34 0.29 4.67 0.62 7 1 C7.69 2.69 7.69 2.69 8 5 C6.56 7.75 6.56 7.75 5 10 C2 9 2 9 1.05 7.15 C0.81 6.42 0.56 5.69 0.31 4.94 C0.06 4.2 -0.19 3.47 -0.45 2.71 C-0.63 2.15 -0.81 1.58 -1 1 C-0.67 0.67 -0.34 0.34 0 0 Z " fill="#000000" transform="translate(94,153)"/>
</svg>
